Coordinates
version=1
nRows=22
nColumns=24
inDegrees=yes

Units are S.I. units (second, meters, Newtons, ...)
Angles are in degrees.

endheader
time	pelvis_tilt	pelvis_list	pelvis_rotation	pelvis_tx	pelvis_ty	pelvis_tz	hip_flexion_r	hip_adduction_r	hip_rotation_r	knee_angle_r	ankle_angle_r	subtalar_angle_r	mtp_angle_r	hip_flexion_l	hip_adduction_l	hip_rotation_l	knee_angle_l	ankle_angle_l	subtalar_angle_l	mtp_angle_l	lumbar_extension	lumbar_bending	lumbar_rotation
      1.42083333	     -3.31361459	      1.70085285	     -5.02238420	      0.51399405	      1.07442126	      0.27532477	     19.99422236	     -4.29039767	     -5.11105087	    -63.53843834	      5.48304703	     -6.24118502	      1.96516151	     11.48562122	      3.42547897	     -2.40287994	    -15.04752035	     10.00810901	      3.58667417	     -0.39702928	     -7.14373419	     -4.05332827	     -0.26514459
      1.42500000	     -3.29571454	      1.63685709	     -4.91317779	      0.51892193	      1.07509597	      0.27494934	     20.38498123	     -4.19031268	     -5.21121965	    -62.86068905	      5.75968399	     -6.06689002	      2.04265085	     10.97952604	      3.41996378	     -2.30628365	    -14.63867946	     10.03242984	      3.64049379	     -0.38751984	     -7.15705808	     -3.94622580	     -0.43020058
      1.42916667	     -3.29534761	      1.57212025	     -4.80051070	      0.52385229	      1.07570578	      0.27458152	     20.78301299	     -4.08827502	     -5.31162869	    -62.15028074	      6.01468112	     -5.93725151	      2.13488157	     10.49334045	      3.41264505	     -2.18544669	    -14.23181429	     10.05186326	      3.66431931	     -0.37553097	     -7.15349860	     -3.83734766	     -0.62506391
      1.43333333	     -3.30367355	      1.51262046	     -4.68714893	      0.52875526	      1.07623475	      0.27422136	     21.18578904	     -3.99106594	     -5.40751167	    -61.41775300	      6.26489689	     -5.84354059	      2.23683203	     10.02442263	      3.40743299	     -2.06729270	    -13.83471396	     10.06497727	      3.68456637	     -0.36123007	     -7.13949969	     -3.73762988	     -0.80430540
      1.43750000	     -3.30936690	      1.45406978	     -4.57794143	      0.53365538	      1.07671545	      0.27385989	     21.57770257	     -3.89853842	     -5.50310028	    -60.65778799	      6.48803423	     -5.76238451	      2.30229781	      9.55917525	      3.40117160	     -1.96580832	    -13.45336649	     10.11990783	      3.72463606	     -0.35091889	     -7.12585433	     -3.63178394	     -0.93406863
      1.44166667	     -3.32529520	      1.38986946	     -4.46414285	      0.53854185	      1.07714329	      0.27350784	     21.96781124	     -3.79806364	     -5.59815511	    -59.86557764	      6.69953473	     -5.72434372	      2.35918567	      9.10883798	      3.38622565	     -1.85132054	    -13.07771315	     10.16263567	      3.75336118	     -0.34123364	     -7.10171944	     -3.52281820	     -1.08739752
      1.44583333	     -3.35946867	      1.34649991	     -4.36476131	      0.54341797	      1.07746933	      0.27319423	     22.38081974	     -3.71312421	     -5.66930412	    -59.06744736	      6.91690685	     -5.73405945	      2.37920391	      8.68673325	      3.38476057	     -1.78497142	    -12.71385664	     10.20296886	      3.83258614	     -0.33707430	     -7.05771347	     -3.44132905	     -1.15269556
      1.45000000	     -3.37151597	      1.28816195	     -4.24130281	      0.54827048	      1.07778751	      0.27283471	     22.74823483	     -3.62670596	     -5.76719965	    -58.22718177	      7.09652050	     -5.72931843	      2.42734399	      8.24186543	      3.37840544	     -1.62242662	    -12.35377979	     10.26501267	      3.79056884	     -0.32633342	     -7.04266705	     -3.33971736	     -1.39642239
      1.45416667	     -3.38084014	      1.24278433	     -4.13569311	      0.55310696	      1.07806543	      0.27253195	     23.11160922	     -3.54421403	     -5.83761599	    -57.37233939	      7.27833794	     -5.77889055	      2.46420338	      7.79785572	      3.37778924	     -1.50263806	    -11.99620989	     10.31254321	      3.79444456	     -0.31621903	     -7.03354649	     -3.25885431	     -1.53002925
      1.45833333	     -3.42721394	      1.21231806	     -4.04352796	      0.55794412	      1.07820726	      0.27225884	     23.51624038	     -3.47086562	     -5.88786091	    -56.51361511	      7.47751943	     -5.84222095	      2.47503977	      7.40425822	      3.38323906	     -1.43602902	    -11.65826452	     10.37710010	      3.86741084	     -0.31166969	     -6.97806713	     -3.19261273	     -1.58246704
      1.46250000	     -3.46459897	      1.15424214	     -3.92624293	      0.56275572	      1.07834725	      0.27196528	     23.88266643	     -3.37296156	     -5.95862869	    -55.60129050	      7.62296037	     -5.94376351	      2.48813190	      7.01373291	      3.36241802	     -1.31019659	    -11.35109724	     10.44525703	      3.86223124	     -0.30482425	     -6.94053960	     -3.10343733	     -1.72431074
      1.46666667	     -3.48877831	      1.11942738	     -3.82577239	      0.56755893	      1.07844362	      0.27169975	     24.23814246	     -3.29800456	     -6.00603726	    -54.68773922	      7.77004518	     -6.06417514	      2.49667251	      6.60311590	      3.36555073	     -1.19532572	    -11.02593640	     10.51828729	      3.86442481	     -0.29771648	     -6.91659893	     -3.03555930	     -1.85303817
      1.47083333	     -3.54636133	      1.11729556	     -3.74083514	      0.57235725	      1.07838836	      0.27146775	     24.64047396	     -3.25343757	     -6.03250533	    -53.79057278	      7.92907965	     -6.18209162	      2.49951531	      6.23205127	      3.39779522	     -1.10537363	    -10.70207390	     10.61481710	      3.90291056	     -0.29188641	     -6.85503816	     -2.99612043	     -1.93627328
      1.47500000	     -3.56238447	      1.08097941	     -3.63529374	      0.57712947	      1.07842086	      0.27122757	     24.96313012	     -3.17421350	     -6.06922849	    -52.82561857	      7.99460288	     -6.38008824	      2.49706365	      5.82079024	      3.39828392	     -0.94820100	    -10.39373326	     10.69808775	      3.83315438	     -0.28142268	     -6.84027660	     -2.93431889	     -2.12417284
      1.47916667	     -3.61349735	      1.08550959	     -3.55291130	      0.58189946	      1.07828381	      0.27103613	     25.34023554	     -3.13218532	     -6.07793421	    -51.89272585	      8.16954982	     -6.50150853	      2.49513454	      5.45677312	      3.43173448	     -0.87243618	    -10.09688901	     10.79032682	      3.88161362	     -0.27578986	     -6.79437509	     -2.91590280	     -2.17717147
      1.48333333	     -3.64962712	      1.06866495	     -3.45532874	      0.58665007	      1.07817612	      0.27083661	     25.67383721	     -3.06499959	     -6.08483541	    -50.90344922	      8.21185920	     -6.74105888	      2.47935837	      5.07959476	      3.44668880	     -0.72465656	     -9.81082151	     10.88146315	      3.82029289	     -0.26478788	     -6.76019123	     -2.87590018	     -2.32752898
      1.48750000	     -3.67542964	      1.05857638	     -3.36857317	      0.59140082	      1.07801931	      0.27066776	     25.99246742	     -3.00406781	     -6.08299668	    -49.91432404	      8.34252108	     -6.90875320	      2.46785703	      4.69882158	      3.46206954	     -0.63443574	     -9.53991568	     10.97512129	      3.83991608	     -0.25714813	     -6.74683186	     -2.84365865	     -2.39436286
      1.49166667	     -3.70764292	      1.05991732	     -3.28473438	      0.59613865	      1.07780136	      0.27051882	     26.31430900	     -2.95156215	     -6.06915891	    -48.91549065	      8.40670821	     -7.12901268	      2.44789519	      4.32380643	      3.48894567	     -0.52505736	     -9.26490469	     11.08696109	      3.83636542	     -0.24746737	     -6.72505919	     -2.82750944	     -2.48709720
      1.49583333	     -3.75650034	      1.10706724	     -3.21909360	      0.60088281	      1.07746937	      0.27040421	     26.66654193	     -2.94438144	     -6.02758119	    -47.94307642	      8.52975256	     -7.24750937	      2.43957663	      3.97140450	      3.56065232	     -0.45753754	     -8.99654459	     11.22179505	      3.89295806	     -0.24139873	     -6.66887999	     -2.86926470	     -2.53018220
      1.50000000	     -3.79327019	      1.10418803	     -3.13165583	      0.60561042	      1.07716943	      0.27028051	     26.96900886	     -2.88095948	     -6.00016459	    -46.90532188	      8.54115396	     -7.54214682	      2.41072685	      3.61130287	      3.57861634	     -0.33932551	     -8.74441622	     11.32040531	      3.85270257	     -0.23232130	     -6.66011282	     -2.84355674	     -2.63617862
      1.50416667	     -3.82446212	      1.13717851	     -3.06033236	      0.61033617	      1.07679627	      0.27018627	     27.27532687	     -2.85604369	     -5.95701752	    -45.89012214	      8.60853197	     -7.73429972	      2.38528406	      3.24206253	      3.63334564	     -0.24164528	     -8.48259915	     11.43757969	      3.84874592	     -0.22284320	     -6.64563366	     -2.86474527	     -2.71412609
      1.50833333	     -3.84163763	      1.17449628	     -2.99199680	      0.61506449	      1.07642035	      0.27011069	     27.55838494	     -2.83524945	     -5.91178645	    -44.86576684	      8.66134078	     -7.91379093	      2.36015366	      2.85554817	      3.69100495	     -0.14843507	     -8.21570605	     11.55968401	      3.85378603	     -0.21386849	     -6.65727589	     -2.89538783	     -2.78067460
